<svg xmlns="http://www.w3.org/2000/svg" version="1.0" viewBox="0 0 32 32" id="Card"><path d="M11.09.059a.5.5 0 0 0-.463.371l-.89 3.334H3.479a.5.5 0 0 0-.354.147.5.5 0 0 0-.146.353V31.56a.5.5 0 0 0 .152.357.5.5 0 0 0 .348.143h17.844a.5.5 0 0 0 .354-.147.5.5 0 0 0 .146-.353v-.006L28.83 5.32a.5.5 0 0 0-.353-.612L11.239.076A.5.5 0 0 0 11.09.06Zm.373 1.111 9.645 2.594H10.77l.693-2.594zm10.224 2.748 6.049 1.627-5.913 22.138V4.264a.5.5 0 0 0-.136-.346Zm-17.708.846h16.844V31.06H3.98V4.764zm8.422 8.247c-1.255 0-2.291 1.014-2.291 2.262 0 .185.103.347.148.525-1.067.188-1.941 1.004-1.941 2.115 0 1.248 1.038 2.262 2.293 2.262a2.6 2.6 0 0 0 .988-.178c.007-.002.018-.012.026-.015-.052.265-.082.552-.145.789-.16.604-.4 1.085-.504 1.187a.5.5 0 0 0 .352.858h2.148a.5.5 0 0 0 .352-.858c-.105-.102-.344-.583-.504-1.187-.063-.237-.093-.524-.145-.79.007.004.019.014.026.016a2.6 2.6 0 0 0 .99.178c1.255 0 2.291-1.014 2.291-2.262 0-1.111-.872-1.927-1.94-2.115.046-.178.149-.34.149-.525 0-1.248-1.038-2.262-2.293-2.262zm0 1c.724 0 1.293.564 1.293 1.262-.001.224-.064.444-.182.638a.5.5 0 0 0 .489.756c.077-.01.142-.014.193-.014.724 0 1.29.563 1.291 1.26 0 .698-.567 1.262-1.291 1.262a2.28 2.28 0 0 1-.607-.101c-.206-.086-.467-.229-.51-.272a1.287 1.287 0 0 1-.157-.186l-.002-.002-.033-.056a.5.5 0 0 0-.486-.237.5.5 0 0 0-.483.237l-.035.06a1.294 1.294 0 0 1-.156.184c-.044.043-.304.186-.51.271a2.266 2.266 0 0 1-.605.102c-.724 0-1.293-.564-1.293-1.262 0-.697.569-1.26 1.293-1.26.058 0 .118.005.181.014a.5.5 0 0 0 .5-.756 1.234 1.234 0 0 1-.181-.64c0-.697.567-1.26 1.29-1.26zm0 7.113c.075.278.226.456.324.692h-.648c.098-.236.248-.414.324-.692z" color="#000" font-family="sans-serif" font-weight="400" overflow="visible" style="line-height:normal;text-indent:0;text-align:start;text-decoration-line:none;text-decoration-style:solid;text-decoration-color:#000;text-transform:none;block-progression:tb;white-space:normal;isolation:auto;mix-blend-mode:normal;solid-color:#000;solid-opacity:1" fill="#34a853" class="color000000 svgShape"></path><path fill="none" d="M18.957 30.237a.533.533 0 0 1-.537-.528c0-.095.026-.188.076-.27-.025 0-.05.009-.076.009a.533.533 0 0 1-.538-.528c0-.292.24-.529.538-.529a.55.55 0 0 1 .38.155c.024.024.046.05.065.078l.015.025c-.052-.418-.092-.899-.245-1.05h.645c-.154.151-.194.632-.246 1.05l.015-.025a.524.524 0 0 1 .236-.191.55.55 0 0 1 .21-.042c.297 0 .537.237.537.529 0 .291-.24.528-.537.528-.026 0-.051 0-.077-.009.05.082.076.175.077.27 0 .292-.24.528-.538.528zM5.75 5.586a.533.533 0 0 0-.538.528c0 .095.027.189.077.27-.026 0-.051-.009-.077-.009a.533.533 0 0 0-.537.528c0 .292.24.529.537.529a.55.55 0 0 0 .38-.155.524.524 0 0 0 .066-.078l.015-.025c-.052.418-.092.899-.246 1.05h.645c-.153-.151-.193-.632-.246-1.05l.015.025a.524.524 0 0 0 .237.191.55.55 0 0 0 .21.042.533.533 0 0 0 .537-.529.533.533 0 0 0-.538-.528c-.025 0-.05 0-.076.01a.523.523 0 0 0 .076-.27.533.533 0 0 0-.537-.53Z" color="#000" style="isolation:auto;mix-blend-mode:normal;solid-color:#000;solid-opacity:1" overflow="visible"></path></svg>