<svg data-v-6805eed4="" version="1.0" xmlns="http://www.w3.org/2000/svg" xmlns:xlink="http://www.w3.org/1999/xlink" width="100%" height="100%" viewBox="0 0 340.000000 250.000000" preserveAspectRatio="xMidYMid meet" color-interpolation-filters="sRGB" style="margin: auto;"> <rect data-v-6805eed4="" x="0" y="0" width="100%" height="100%" fill="#ffffff" fill-opacity="0" class="background"></rect> <rect data-v-6805eed4="" x="0" y="0" width="100%" height="100%" fill="url(#watermark)" fill-opacity="1" class="watermarklayer"></rect> <g data-v-6805eed4="" fill="#f6d33c" class="icon-text-wrapper icon-svg-group iconsvg" transform="translate(73.5199966430664,90.31807708740234)"><g class="iconsvg-imagesvg" transform="matrix(1,0,0,1,0,4.608543395996094)" opacity="1"><g><rect fill="#f6d33c" fill-opacity="0" stroke-width="2" x="0" y="0" width="60" height="60.14675808973896" class="image-rect"></rect> <svg filter="url(#colors4477833985)" x="0" y="0" width="60" height="60.14675808973896" filtersec="colorsf6528974272" class="image-svg-svg primary" style="overflow: visible;"><svg fill="#000000" xmlns="http://www.w3.org/2000/svg" xmlns:xlink="http://www.w3.org/1999/xlink" xml:space="preserve" version="1.1" style="shape-rendering:geometricPrecision;text-rendering:geometricPrecision;image-rendering:optimizeQuality;" viewBox="1148.4381103515625 1079.080322265625 57702.8671875 57844.10546875" x="0px" y="0px" fill-rule="evenodd" clip-rule="evenodd"><defs></defs><g><path class="fil0" d="M21682 3459c3392,-2398 6885,-2827 9943,-1982 574,159 1133,362 1672,606 3579,-573 6606,339 8902,2097 732,561 1390,1207 1966,1918 4052,917 6708,3225 8127,6063 413,825 720,1694 926,2586 3240,2600 4615,5840 4646,9012 9,922 -96,1838 -301,2730 1772,3757 1588,7272 226,10137 -396,833 -892,1610 -1467,2322 -54,4154 -1760,7232 -4241,9210 -721,575 -1507,1056 -2336,1443 -1870,3710 -4752,5728 -7849,6419 -900,201 -1818,289 -2733,273 -3306,2515 -6783,3065 -9868,2328 -897,-214 -1760,-537 -2576,-953 -4074,811 -7440,-218 -9890,-2233 -712,-586 -1347,-1255 -1898,-1985 -4017,-1057 -6591,-3458 -7910,-6343 -383,-839 -660,-1718 -835,-2616 -3147,-2711 -4408,-5997 -4329,-9168 23,-922 160,-1834 396,-2718 -1640,-3817 -1333,-7323 128,-10138 425,-819 947,-1578 1547,-2269 199,-4149 2012,-7166 4560,-9056 741,-549 1543,-1003 2385,-1361 1998,-3642 4949,-5559 8068,-6141 907,-169 1827,-225 2741,-177zm14379 351c239,197 471,403 695,616 1441,1373 2573,3080 3260,4945 1207,3276 1045,7038 -1213,10338 -99,145 -297,182 -442,83 -114,-78 -161,-218 -128,-345l0 0c852,-3175 673,-6168 -292,-8690 -656,-1714 -1675,-3211 -2980,-4401 -1305,-1189 -2896,-2070 -4697,-2554 -1949,-523 -4145,-580 -6490,-55 361,81 718,178 1070,290 1897,603 3663,1641 5098,3016 2521,2415 4025,5867 3442,9823 -26,174 -187,294 -361,268 -137,-20 -241,-125 -266,-254l0 0c-626,-3228 -2099,-5839 -4072,-7683 -1341,-1253 -2913,-2152 -4608,-2649 -1694,-497 -3511,-591 -5341,-236 -1982,384 -3980,1296 -5857,2796 360,-85 723,-155 1089,-208 1969,-290 4011,-131 5904,476 3325,1065 6189,3509 7400,7320 53,167 -39,346 -207,399 -132,42 -271,-7 -350,-112l0 0c-1977,-2627 -4446,-4328 -7027,-5120 -1754,-539 -3562,-657 -5302,-361 -1740,296 -3414,1007 -4904,2129 -1613,1214 -3009,2910 -4039,5081 286,-234 582,-456 888,-665 1643,-1124 3548,-1876 5515,-2161 3455,-500 7101,441 9860,3335 121,127 116,328 -11,449 -100,96 -247,113 -364,53l0 0c-2929,-1494 -5893,-1941 -8561,-1522 -1813,285 -3489,971 -4924,2000 -1434,1029 -2627,2402 -3474,4063 -917,1798 -1429,3934 -1403,6337 154,-336 324,-665 506,-987 984,-1730 2366,-3241 4010,-4359 2887,-1964 6576,-2717 10324,-1324 164,61 248,244 187,408 -48,130 -172,209 -303,207l0 0c-3287,-59 -6148,839 -8361,2385 -1504,1051 -2711,2402 -3549,3956 -838,1553 -1308,3311 -1342,5175 -36,2018 440,4162 1517,6311 -8,-370 -1,-740 23,-1109 126,-1987 706,-3951 1693,-5676 1733,-3031 4719,-5325 8699,-5716 175,-17 330,110 347,285 14,138 -63,264 -182,319l0 0c-2980,1388 -5158,3449 -6470,5809 -891,1604 -1383,3347 -1455,5112 -72,1764 276,3549 1063,5239 852,1830 2220,3548 4130,5007 -170,-329 -325,-665 -466,-1007 -758,-1841 -1097,-3860 -967,-5844 229,-3484 1908,-6855 5313,-8951 149,-92 345,-45 437,104 73,118 59,265 -24,367l0 0c-2070,2554 -3124,5361 -3268,8057 -98,1832 224,3615 933,5232 708,1617 1804,3069 3252,4243 1568,1271 3551,2216 5907,2690 -296,-221 -583,-455 -860,-701 -1488,-1322 -2678,-2989 -3431,-4828 -1321,-3232 -1290,-6997 851,-10374 94,-148 290,-192 438,-98 117,74 169,212 140,340l0 0c-741,3203 -458,6188 595,8675 715,1690 1786,3151 3132,4294 1345,1143 2967,1968 4783,2388 1967,455 4163,435 6488,-172 -363,-69 -724,-153 -1080,-253 -1917,-536 -3718,-1512 -5200,-2836 -2604,-2326 -4227,-5723 -3783,-9697 20,-174 177,-300 351,-280 138,15 245,117 274,244l0 0c738,3204 2301,5762 4337,7536 1384,1206 2986,2049 4697,2486 1710,437 3529,468 5346,50 1967,-453 3932,-1434 5756,-2998 -357,98 -718,180 -1081,246 -1958,359 -4004,271 -5917,-269 -3360,-949 -6308,-3291 -7651,-7057 -59,-165 27,-347 193,-406 130,-47 271,-3 354,99l0 0c2068,2556 4594,4170 7202,4872 1772,477 3582,532 5312,176 1729,-357 3377,-1126 4827,-2299 1569,-1270 2906,-3013 3859,-5218 -278,244 -566,476 -864,695 -1603,1181 -3480,1999 -5436,2352 -3436,620 -7112,-193 -9970,-2989 -125,-123 -128,-324 -5,-449 97,-99 243,-121 361,-66l0 0c2979,1391 5957,1734 8609,1222 1802,-348 3453,-1092 4851,-2171 1397,-1078 2542,-2493 3331,-4182 854,-1829 1291,-3982 1181,-6382 -143,341 -300,676 -472,1004 -923,1764 -2252,3322 -3855,4497 -2816,2064 -6477,2945 -10272,1684 -167,-55 -257,-235 -201,-402 44,-131 165,-215 296,-218l0 0c3287,-56 6115,-1053 8273,-2676 1467,-1103 2625,-2495 3409,-4078 783,-1582 1192,-3355 1160,-5219 -34,-2018 -585,-4145 -1736,-6254 21,369 27,739 16,1109 -56,1990 -568,3973 -1494,5732 -1627,3089 -4531,5486 -8494,6016 -174,23 -334,-99 -357,-273 -18,-137 54,-266 171,-325l0 0c2930,-1491 5034,-3627 6263,-6031 835,-1634 1266,-3393 1276,-5159 10,-1765 -399,-3538 -1245,-5199 -916,-1799 -2343,-3469 -4302,-4860 181,322 348,653 501,990 822,1813 1231,3820 1170,5806 -108,3490 -1667,6917 -4997,9131 -146,97 -343,57 -441,-89 -77,-115 -68,-263 11,-367l0 0c1980,-2625 2935,-5467 2985,-8167 34,-1835 -350,-3605 -1115,-5196 -764,-1591 -1910,-3005 -3398,-4127 -1139,-859 -2480,-1548 -4006,-2017z"></path></g></svg></svg> <defs><filter id="colors4477833985"><feColorMatrix type="matrix" values="0 0 0 0 0  0 0 0 0 0  0 0 0 0 0  0 0 0 1 0" class="icon-fecolormatrix"></feColorMatrix></filter> <filter id="colorsf6528974272"><feColorMatrix type="matrix" values="0 0 0 0 0.99609375  0 0 0 0 0.99609375  0 0 0 0 0.99609375  0 0 0 1 0" class="icon-fecolormatrix"></feColorMatrix></filter> <filter id="colorsb9346443688"><feColorMatrix type="matrix" values="0 0 0 0 0  0 0 0 0 0  0 0 0 0 0  0 0 0 1 0" class="icon-fecolormatrix"></feColorMatrix></filter></defs></g></g> <g transform="translate(67,0)"><g data-gra="path-name" fill-rule="" class="tp-name iconsvg-namesvg" opacity="1" transform="matrix(1,0,0,1,0,0)"><g transform="scale(1)"><g><path d="M19.18 0.62L19.18 0.62Q14.43 0.62 10.53-0.44 6.64-1.5 2.86-4.13L2.86-4.13 2.86-14.52 9.53-14.52 10.44-8.41Q11.77-7.29 14.1-6.59 16.43-5.9 19.18-5.9L19.18-5.9Q21.51-5.9 23.12-6.55 24.73-7.2 25.57-8.39 26.41-9.59 26.41-11.21L26.41-11.21Q26.41-12.75 25.65-13.94 24.9-15.14 23.18-16.12 21.45-17.11 18.5-18.03L18.5-18.03Q13.4-19.53 10.05-21.32 6.7-23.1 5.03-25.6 3.36-28.09 3.36-31.6L3.36-31.6Q3.36-35.08 5.3-37.75 7.23-40.42 10.65-41.96 14.07-43.49 18.56-43.55L18.56-43.55Q23.52-43.61 27.34-42.37 31.16-41.13 33.93-38.92L33.93-38.92 33.93-29.24 27.47-29.24 26.35-35.14Q25.23-35.85 23.32-36.38 21.42-36.91 19-36.91L19-36.91Q16.94-36.91 15.36-36.29 13.78-35.67 12.86-34.49 11.95-33.31 11.95-31.63L11.95-31.63Q11.95-30.18 12.75-29.11 13.54-28.03 15.42-27.07 17.29-26.11 20.59-25.02L20.59-25.02Q27.71-23.04 31.38-19.8 35.05-16.55 35.05-11.27L35.05-11.27Q35.05-7.61 33.08-4.94 31.1-2.27 27.53-0.83 23.96 0.62 19.18 0.62ZM59.69 0.62L59.69 0.62Q54.58 0.62 50.7-1.15 46.82-2.92 44.67-6.28 42.52-9.65 42.52-14.46L42.52-14.46 42.52-36.88 37.94-37.77 37.94-42.96 55.74-42.96 55.74-37.77 51.13-36.88 51.13-14.46Q51.13-11.63 52.17-9.74 53.2-7.85 55.12-6.92 57.03-5.99 59.69-5.99L59.69-5.99Q62.4-5.99 64.34-6.92 66.27-7.85 67.3-9.74 68.33-11.63 68.33-14.46L68.33-14.46 68.33-36.88 63.76-37.77 63.76-42.96 81.55-42.96 81.55-37.77 76.95-36.88 76.95-14.46Q76.95-9.65 74.78-6.27 72.61-2.89 68.73-1.14 64.85 0.62 59.69 0.62ZM102.12 0L84.33 0 84.33-5.16 88.9-6.05 88.9-36.88 84.33-37.77 84.33-42.96 88.9-42.96 97.63-42.96 116.34-13.16 116.52-13.19 116.52-36.88 111.03-37.77 111.03-42.96 124.22-42.96 128.82-42.96 128.82-37.77 124.22-36.88 124.22 0 115.9 0 96.78-29.51 96.6-29.48 96.6-6.05 102.12-5.16 102.12 0Z" transform="translate(-2.8600001335144043, 43.55276870727539)"></path></g> <!----> <!----> <!----> <!----> <!----> <!----> <g data-gra="path-name-1" fill="#000000" transform="translate(0,47.172767639160156)"><g transform="scale(0.98452)"><path d="M11.03 0.32L11.03 0.32Q7.76 0.32 5.46-1.04 3.16-2.39 1.93-4.8 0.71-7.21 0.71-10.38L0.71-10.38 0.71-11.13Q0.71-14.41 1.93-16.91 3.14-19.41 5.38-20.81 7.61-22.22 10.67-22.22L10.67-22.22Q13.03-22.22 15.1-21.57 17.18-20.92 18.71-19.63L18.71-19.63 18.71-14.77 15.46-14.77 14.85-17.71Q14.26-18.22 13.27-18.53 12.27-18.83 11-18.83L11-18.83Q9.16-18.83 7.83-17.87 6.5-16.91 5.79-15.18 5.08-13.45 5.08-11.16L5.08-11.16 5.08-10.38Q5.08-8.15 5.78-6.51 6.48-4.86 7.84-3.96 9.19-3.05 11.16-3.05L11.16-3.05Q12.32-3.05 13.29-3.27 14.26-3.49 14.89-3.81L14.89-3.81 14.89-7.52 11.76-7.76 11.76-10.85 19.3-10.85 19.3-1.99Q17.84-0.95 15.79-0.32 13.73 0.32 11.03 0.32ZM28.73 0L21.27 0 21.27-2.63 22.83-2.86 29.8-21.9 34.3-21.9 41.22-2.86 42.78-2.63 42.78 0 35.32 0 35.32-2.63 36.84-2.9 35.88-5.91 28.18-5.91 27.21-2.9 28.73-2.63 28.73 0ZM31.76-16.61L29.21-9.15 34.84-9.15 32.28-16.65 32.07-17.31 31.98-17.31 31.76-16.61ZM53.31 0L44.24 0 44.24-2.63 46.57-3.08 46.57-18.8 44.24-19.25 44.24-21.9 46.57-21.9 53.07-21.9 59.04-6.63 59.13-6.63 64.91-21.9 73.75-21.9 73.75-19.25 71.41-18.8 71.41-3.08 73.75-2.63 73.75 0 64.68 0 64.68-2.63 67.14-3.08 67.14-7.28 67.21-17.16 67.12-17.18 60.58-0.3 57.25-0.3 50.56-17.04 50.47-17.03 50.72-7.73 50.72-3.08 53.31-2.63 53.31 0ZM84.38 0L75.32 0 75.32-2.63 77.65-3.08 77.65-18.8 75.32-19.25 75.32-21.9 84.38-21.9 84.38-19.25 82.04-18.8 82.04-3.08 84.38-2.63 84.38 0ZM95.13 0L86.06 0 86.06-2.63 88.39-3.08 88.39-18.8 86.06-19.25 86.06-21.9 88.39-21.9 92.84-21.9 102.38-6.71 102.47-6.72 102.47-18.8 99.67-19.25 99.67-21.9 106.4-21.9 108.74-21.9 108.74-19.25 106.4-18.8 106.4 0 102.16 0 92.41-15.04 92.32-15.03 92.32-3.08 95.13-2.63 95.13 0ZM120.37 0.32L120.37 0.32Q117.11 0.32 114.81-1.04 112.51-2.39 111.28-4.8 110.05-7.21 110.05-10.38L110.05-10.38 110.05-11.13Q110.05-14.41 111.27-16.91 112.49-19.41 114.72-20.81 116.96-22.22 120.01-22.22L120.01-22.22Q122.37-22.22 124.45-21.57 126.53-20.92 128.06-19.63L128.06-19.63 128.06-14.77 124.81-14.77 124.19-17.71Q123.61-18.22 122.61-18.53 121.62-18.83 120.34-18.83L120.34-18.83Q118.51-18.83 117.18-17.87 115.84-16.91 115.14-15.18 114.43-13.45 114.43-11.16L114.43-11.16 114.43-10.38Q114.43-8.15 115.13-6.51 115.83-4.86 117.18-3.96 118.54-3.05 120.51-3.05L120.51-3.05Q121.67-3.05 122.64-3.27 123.61-3.49 124.24-3.81L124.24-3.81 124.24-7.52 121.11-7.76 121.11-10.85 128.65-10.85 128.65-1.99Q127.19-0.95 125.13-0.32 123.08 0.32 120.37 0.32Z" transform="translate(-0.7099999785423279, 22.219999313354492)"></path></g></g></g></g> <!----></g></g><defs v-gra="od"></defs></svg>