<?xml version="1.0" standalone="no"?>
<!DOCTYPE svg PUBLIC "-//W3C//DTD SVG 20010904//EN"
 "http://www.w3.org/TR/2001/REC-SVG-20010904/DTD/svg10.dtd">
<svg version="1.0" xmlns="http://www.w3.org/2000/svg"
 width="144.000000pt" height="144.000000pt" viewBox="0 0 144.000000 144.000000"
 preserveAspectRatio="xMidYMid meet">
<metadata>
Created by potrace 1.14, written by Peter Selinger 2001-2017
</metadata>
<g transform="translate(0.000000,144.000000) scale(0.100000,-0.100000)"
fill="#000000" stroke="none">
<path d="M596 1375 c-21 -8 -45 -20 -52 -26 -7 -5 -34 -13 -61 -15 -26 -3 -66
-13 -88 -23 -41 -18 -115 -83 -115 -101 0 -5 -18 -21 -40 -35 -78 -49 -123
-113 -136 -190 -3 -21 -20 -63 -37 -94 -34 -61 -35 -74 -23 -283 7 -109 26
-165 75 -219 17 -19 37 -52 43 -74 16 -51 99 -135 153 -154 22 -8 53 -27 68
-43 46 -48 118 -76 195 -76 37 0 81 -6 97 -12 56 -22 138 -15 207 18 35 17 81
33 103 37 22 3 57 15 78 26 41 21 103 83 113 111 3 9 13 19 22 22 52 17 128
124 137 194 2 23 17 66 32 95 31 60 39 156 19 215 -7 21 -12 63 -11 94 3 66
-27 143 -75 193 -15 17 -38 51 -50 77 -34 73 -115 144 -178 154 -7 1 -29 17
-49 34 -50 45 -93 60 -193 72 -151 18 -193 18 -234 3z m163 -66 c68 -29 126
-95 148 -168 15 -53 19 -135 7 -173 -3 -10 0 -18 6 -18 17 0 43 69 48 126 5
66 -11 121 -53 183 -37 56 -28 65 26 26 120 -89 151 -230 79 -369 -16 -32 -28
-62 -25 -64 11 -11 76 64 100 114 20 42 23 63 21 120 -2 38 -9 82 -15 98 -17
41 -8 42 28 1 105 -120 105 -275 0 -385 -19 -20 -49 -45 -66 -55 -31 -18 -43
-35 -25 -35 31 0 108 38 142 70 45 42 90 131 93 184 2 41 10 36 26 -16 11 -35
16 -115 8 -148 -22 -96 -121 -187 -222 -205 -22 -4 -48 -9 -59 -11 -31 -6 -30
-12 5 -22 47 -13 124 -5 173 19 47 22 106 78 131 124 l17 30 -5 -56 c-12 -133
-116 -234 -249 -244 -54 -4 -133 10 -155 27 -19 15 -24 -8 -5 -25 79 -71 238
-74 335 -5 l31 23 -23 -40 c-98 -164 -294 -188 -442 -54 -54 48 -63 34 -19
-30 56 -81 151 -127 248 -119 l56 5 -29 -23 c-61 -48 -180 -62 -257 -30 -71
30 -142 110 -167 189 -18 55 -34 47 -27 -15 14 -113 80 -197 191 -241 40 -16
40 -16 10 -18 -123 -7 -175 10 -240 75 -70 70 -102 177 -81 273 8 37 -14 26
-30 -14 -39 -93 -18 -209 51 -291 28 -32 32 -40 17 -37 -74 14 -173 107 -193
179 -26 93 -16 140 59 289 10 20 -25 3 -55 -28 -65 -67 -90 -165 -68 -262 14
-59 9 -65 -23 -28 -119 137 -89 323 70 429 52 35 52 52 1 37 -102 -29 -180
-118 -204 -230 l-12 -56 -12 40 c-54 183 56 349 246 372 65 8 70 19 15 31 -43
9 -65 9 -111 -2 -11 -2 -25 -5 -31 -5 -24 -2 -108 -67 -135 -104 -41 -56 -44
-8 -5 78 59 130 205 191 346 144 76 -25 81 -23 37 15 -71 63 -197 73 -298 23
l-49 -24 19 31 c22 34 101 106 122 110 8 2 21 6 29 9 38 16 110 13 169 -6 44
-14 77 -34 113 -68 29 -27 54 -46 57 -43 10 10 -45 97 -81 125 -52 42 -104 61
-173 65 -33 1 -62 3 -65 4 -3 0 17 12 44 26 155 81 334 1 391 -173 22 -66 39
-59 31 13 -10 98 -76 188 -164 228 -24 11 -38 22 -32 26 20 12 109 1 159 -21z"/>
</g>
</svg>
