<?xml version="1.0" standalone="no"?>
<!DOCTYPE svg PUBLIC "-//W3C//DTD SVG 20010904//EN"
 "http://www.w3.org/TR/2001/REC-SVG-20010904/DTD/svg10.dtd">
<svg version="1.0" xmlns="http://www.w3.org/2000/svg"
 width="190.000000pt" height="190.000000pt" viewBox="0 0 190.000000 190.000000"
 preserveAspectRatio="xMidYMid meet">
<metadata>
Created by potrace 1.14, written by Peter Selinger 2001-2017
</metadata>
<g transform="translate(0.000000,190.000000) scale(0.100000,-0.100000)"
fill="#000000" stroke="none">
<path d="M802 1819 c-18 -5 -52 -20 -75 -33 -23 -13 -68 -26 -100 -30 -103
-11 -213 -81 -265 -168 -9 -15 -29 -33 -45 -39 -44 -18 -122 -101 -151 -161
-14 -29 -29 -75 -32 -103 -4 -27 -12 -57 -20 -65 -57 -67 -86 -197 -63 -291 7
-30 13 -99 14 -154 1 -85 5 -109 27 -157 15 -31 44 -76 66 -100 22 -24 45 -61
51 -85 25 -90 113 -183 208 -219 26 -10 66 -35 88 -56 22 -22 68 -53 103 -70
56 -28 74 -31 160 -33 55 -2 118 -10 145 -18 79 -27 232 -2 286 47 9 8 34 17
56 20 75 11 100 18 145 41 47 24 132 107 151 148 6 13 26 32 45 42 44 23 106
91 133 143 11 21 25 70 32 108 6 38 20 81 31 96 49 70 68 196 41 277 -8 25
-17 90 -18 144 -3 83 -7 106 -33 160 -16 34 -47 80 -69 102 -21 22 -47 60 -57
84 -23 60 -68 122 -108 152 -38 29 -118 69 -138 69 -7 0 -33 18 -57 41 -69 63
-142 91 -243 95 -47 1 -98 7 -113 13 -34 13 -149 13 -195 0z m151 -74 c192
-50 300 -249 252 -464 -10 -48 12 -37 42 21 63 119 30 298 -75 411 -33 35 -20
34 43 -2 93 -54 142 -117 170 -215 28 -98 7 -229 -52 -317 -38 -58 -24 -69 28
-21 98 90 136 223 102 362 -8 36 -20 71 -25 78 -6 7 -6 12 -1 12 11 0 73 -64
102 -107 67 -98 74 -252 16 -362 -25 -49 -113 -140 -157 -162 -21 -11 -38 -24
-38 -29 0 -36 147 28 210 91 56 57 98 147 106 228 7 62 7 63 21 36 26 -48 40
-143 31 -212 -20 -170 -155 -294 -348 -319 -62 -8 -69 -19 -21 -32 132 -33
293 29 374 145 59 84 57 84 51 23 -23 -197 -153 -325 -342 -337 -64 -4 -89 -1
-150 19 -40 14 -75 21 -77 17 -3 -4 10 -19 27 -34 84 -70 225 -94 332 -56 33
11 77 32 98 46 20 14 40 25 43 25 14 0 -62 -105 -101 -139 -78 -68 -125 -86
-234 -86 -87 0 -101 3 -160 32 -36 17 -89 55 -119 82 -30 28 -56 49 -59 47 -2
-3 5 -24 16 -48 24 -55 83 -117 145 -153 56 -32 172 -54 237 -44 25 4 46 6 48
4 8 -7 -85 -57 -140 -76 -133 -45 -272 -7 -369 99 -48 52 -91 128 -104 185 -9
35 -23 35 -27 0 -17 -149 118 -329 275 -369 52 -13 6 -23 -88 -20 -106 3 -161
24 -229 86 -97 90 -139 219 -117 361 12 73 -11 63 -43 -20 -47 -121 -14 -274
83 -383 l42 -47 -32 9 c-102 29 -189 102 -235 196 -24 50 -29 72 -30 143 -2
95 11 142 62 226 39 65 39 65 21 65 -18 0 -81 -61 -111 -107 -54 -84 -70 -240
-32 -327 9 -22 15 -41 12 -43 -2 -2 -26 21 -53 51 -159 174 -120 421 91 564
55 38 64 48 47 50 -12 2 -38 -2 -59 -9 -133 -43 -224 -151 -255 -304 l-13 -68
-18 56 c-78 247 72 464 341 492 32 4 60 8 61 10 2 2 -7 9 -20 17 -14 8 -56 13
-108 13 -71 0 -94 -4 -141 -26 -67 -32 -132 -88 -172 -149 l-29 -45 6 60 c12
112 83 224 178 278 96 54 224 61 341 17 32 -12 61 -20 63 -17 10 9 -51 58
-106 85 -49 24 -66 27 -156 27 -97 0 -105 -2 -173 -37 l-71 -36 17 31 c31 54
111 127 171 155 49 23 70 27 147 27 82 0 97 -3 158 -33 39 -19 91 -57 122 -87
30 -30 57 -51 59 -46 9 14 -43 106 -82 146 -70 72 -218 121 -314 104 -49 -8
-36 11 29 42 200 97 407 24 502 -176 16 -33 32 -75 36 -92 8 -40 25 -43 26 -5
4 123 -23 196 -105 278 -36 35 -85 72 -118 88 -32 14 -58 29 -58 31 0 11 130
4 183 -10z"/>
</g>
</svg>
