<svg xmlns="http://www.w3.org/2000/svg" version="1.0" viewBox="0 0 32 32" id="Bet"><path d="M21.656 7.176a3.555 3.555 0 0 0-2.804 1.748l-3.76 6.44a3.465 3.465 0 0 0-.467 1.865V13.9c0-1.93-1.57-3.5-3.5-3.5h-7.59c-1.93 0-3.5 1.57-3.5 3.5v7.436c0 1.93 1.57 3.5 3.5 3.5h7.59c1.93 0 3.5-1.57 3.5-3.5v-3.961a3.441 3.441 0 0 0 1.729 2.748l6.574 3.752c1.673.955 3.825.37 4.8-1.299l3.762-6.44a3.46 3.46 0 0 0-1.263-4.759l-6.575-3.752a3.484 3.484 0 0 0-1.996-.45zm.065.986c.48-.035.976.07 1.427.328l6.573 3.75a2.456 2.456 0 0 1 .9 3.403l-3.76 6.437a2.515 2.515 0 0 1-3.43.932l-6.574-3.752c-1.205-.688-1.602-2.192-.896-3.4l3.76-6.44c.441-.756 1.2-1.2 2-1.258zm.15.983a1.867 1.867 0 0 0-1.484.914 1.838 1.838 0 0 0 .68 2.515c.883.504 2.03.202 2.542-.676a1.838 1.838 0 0 0-1.738-2.753zm.229.992c.11.014.222.05.326.11a.834.834 0 0 1 .314 1.155.854.854 0 0 1-1.17.309.835.835 0 0 1-.316-1.156.851.851 0 0 1 .846-.418zM3.535 11.4h7.59c1.394 0 2.5 1.107 2.5 2.5v7.436c0 1.394-1.106 2.5-2.5 2.5h-7.59a2.484 2.484 0 0 1-2.5-2.5V13.9c0-1.393 1.106-2.5 2.5-2.5zm.262.881a1.86 1.86 0 0 0-1.86 1.844 1.86 1.86 0 0 0 1.86 1.844 1.86 1.86 0 0 0 1.86-1.844 1.86 1.86 0 0 0-1.86-1.844zm24.195.356a1.873 1.873 0 0 0-1.486.916 1.835 1.835 0 0 0 .68 2.513c.883.505 2.03.202 2.543-.675a1.835 1.835 0 0 0-.68-2.514 1.858 1.858 0 0 0-1.057-.24zm-24.195.644c.483 0 .86.375.86.844a.844.844 0 0 1-.86.844.844.844 0 0 1-.86-.844c0-.469.376-.844.86-.844zm24.424.35c.11.014.22.05.324.11a.835.835 0 0 1 .316 1.155.856.856 0 0 1-1.172.307.834.834 0 0 1-.314-1.156.85.85 0 0 1 .846-.416zm-5.057.285a1.867 1.867 0 0 0-1.484.914 1.838 1.838 0 0 0 .68 2.516c.883.504 2.03.201 2.542-.676a1.838 1.838 0 0 0-1.738-2.754zm.229.992c.11.014.222.052.326.112a.832.832 0 0 1 .314 1.154.854.854 0 0 1-1.17.308.835.835 0 0 1-.316-1.156.851.851 0 0 1 .846-.418zm-5.055.287a1.87 1.87 0 0 0-1.486.914 1.836 1.836 0 0 0 .681 2.514 1.879 1.879 0 0 0 2.541-.674 1.838 1.838 0 0 0-1.736-2.754zm-11.008.58a1.86 1.86 0 0 0-1.86 1.844 1.86 1.86 0 0 0 1.86 1.844 1.86 1.86 0 0 0 1.86-1.844 1.86 1.86 0 0 0-1.86-1.844zm11.236.412a.88.88 0 0 1 .325.112.833.833 0 0 1 .316 1.154.853.853 0 0 1-1.17.307.833.833 0 0 1-.316-1.155.851.851 0 0 1 .845-.418zm-11.236.588c.484 0 .86.376.86.844a.844.844 0 0 1-.86.844.844.844 0 0 1-.86-.844c0-.468.377-.844.86-.844zm17.127 1.913a1.87 1.87 0 0 0-1.484.916 1.835 1.835 0 0 0 .68 2.513c.883.504 2.03.204 2.542-.674a1.838 1.838 0 0 0-.68-2.515c-.33-.19-.7-.266-1.058-.24zm-13.594.58a1.86 1.86 0 0 0-1.86 1.843 1.86 1.86 0 0 0 1.86 1.844 1.86 1.86 0 0 0 1.86-1.844 1.86 1.86 0 0 0-1.86-1.843zm13.823.414c.11.014.222.05.326.109a.834.834 0 0 1 .314 1.156.853.853 0 0 1-1.17.307.833.833 0 0 1-.316-1.154.851.851 0 0 1 .846-.418zm-13.823.586c.484 0 .86.375.86.843a.844.844 0 0 1-.86.844.844.844 0 0 1-.86-.844c0-.468.377-.843.86-.843z" color="#000" font-family="sans-serif" font-weight="400" overflow="visible" style="line-height:normal;text-indent:0;text-align:start;text-decoration-line:none;text-decoration-style:solid;text-decoration-color:#000;text-transform:none;block-progression:tb;white-space:normal;isolation:auto;mix-blend-mode:normal;solid-color:#000;solid-opacity:1" fill="#34a853" class="color000000 svgShape"></path></svg>